# xmcd
#
# Track frame offsets:
#	150
#	5362
#	21947
#	32865
#	44760
#	54117
#	73910
#	86520
#	95940
#	103650
#	112329
#	121025
#	128697
#
# Disc length: 1922 seconds
#
# Revision: 0
# Processed by: cddbd v1.5.1PL0 Copyright (c) Steve Scherf et al.
# Submitted via: audiograbber 1.81.02
#
DISCID=b307800d
DTITLE=Tim Thomas und Olaf Franke - Mit Freddy durch die Bibel 4 - Frühstück fü
DTITLE=r Petrus (www.gerth.de)
DYEAR=2005
DGENRE=Musical
TTITLE0=Henning Hahn
TTITLE1=Das Buch der Bücher
TTITLE2=Was wird mit Jesus passieren
TTITLE3=Jesus wird verhört
TTITLE4=Henning versteht das nicht
TTITLE5=Die Jünger sind versammelt
TTITLE6=Jesus ist plötzlich da
TTITLE7=Jesus ist auferstanden
TTITLE8=Fischer-Song
TTITLE9=Jesus macht Frühstück
TTITLE10=Jesus' Frage
TTITLE11=Wie es weitergeht
TTITLE12=Das war's also
EXTD=
EXTT0=
EXTT1=
EXTT2=
EXTT3=
EXTT4=
EXTT5=
EXTT6=
EXTT7=
EXTT8=
EXTT9=
EXTT10=
EXTT11=
EXTT12=
PLAYORDER=
